<mxfile host="app.diagrams.net" agent="Mozilla/5.0 (Windows NT 10.0; Win64; x64) AppleWebKit/537.36 (KHTML, like Gecko) Chrome/138.0.0.0 Safari/537.36" version="28.0.9">
  <diagram name="Page-1" id="E7fMDFsgGGqXA_gxXPvx">
    <mxGraphModel dx="1106" dy="615" grid="1" gridSize="10" guides="1" tooltips="1" connect="1" arrows="1" fold="1" page="1" pageScale="1" pageWidth="850" pageHeight="1100" math="0" shadow="0">
      <root>
        <mxCell id="0" />
        <mxCell id="1" parent="0" />
        <mxCell id="LA3FCLX1lAekXV_oRuU7-1" value="infinity-prod" style="points=[[0,0],[0.25,0],[0.5,0],[0.75,0],[1,0],[1,0.25],[1,0.5],[1,0.75],[1,1],[0.75,1],[0.5,1],[0.25,1],[0,1],[0,0.75],[0,0.5],[0,0.25]];outlineConnect=0;gradientColor=none;html=1;whiteSpace=wrap;fontSize=12;fontStyle=0;container=1;pointerEvents=0;collapsible=0;recursiveResize=0;shape=mxgraph.aws4.group;grIcon=mxgraph.aws4.group_account;strokeColor=#CD2264;fillColor=none;verticalAlign=top;align=left;spacingLeft=30;fontColor=#CD2264;dashed=0;" vertex="1" parent="1">
          <mxGeometry x="190" y="70" width="740" height="480" as="geometry" />
        </mxCell>
        <mxCell id="LA3FCLX1lAekXV_oRuU7-3" value="EKS" style="points=[[0,0],[0.25,0],[0.5,0],[0.75,0],[1,0],[1,0.25],[1,0.5],[1,0.75],[1,1],[0.75,1],[0.5,1],[0.25,1],[0,1],[0,0.75],[0,0.5],[0,0.25]];outlineConnect=0;gradientColor=none;html=1;whiteSpace=wrap;fontSize=12;fontStyle=0;container=1;pointerEvents=0;collapsible=0;recursiveResize=0;shape=mxgraph.aws4.group;grIcon=mxgraph.aws4.group_account;strokeColor=#CD2264;fillColor=none;verticalAlign=top;align=left;spacingLeft=30;fontColor=#CD2264;dashed=0;" vertex="1" parent="LA3FCLX1lAekXV_oRuU7-1">
          <mxGeometry x="220" y="150" width="310" height="260" as="geometry" />
        </mxCell>
        <mxCell id="LA3FCLX1lAekXV_oRuU7-4" value="" style="aspect=fixed;sketch=0;html=1;dashed=0;whitespace=wrap;verticalLabelPosition=bottom;verticalAlign=top;fillColor=#2875E2;strokeColor=#ffffff;points=[[0.005,0.63,0],[0.1,0.2,0],[0.9,0.2,0],[0.5,0,0],[0.995,0.63,0],[0.72,0.99,0],[0.5,1,0],[0.28,0.99,0]];shape=mxgraph.kubernetes.icon2;prIcon=deploy" vertex="1" parent="LA3FCLX1lAekXV_oRuU7-3">
          <mxGeometry x="45" y="100" width="50" height="48" as="geometry" />
        </mxCell>
        <mxCell id="LA3FCLX1lAekXV_oRuU7-5" value="quantum-fabric-tqf" style="text;html=1;align=center;verticalAlign=middle;whiteSpace=wrap;rounded=0;" vertex="1" parent="LA3FCLX1lAekXV_oRuU7-3">
          <mxGeometry x="40" y="160" width="60" height="30" as="geometry" />
        </mxCell>
        <mxCell id="LA3FCLX1lAekXV_oRuU7-6" value="" style="aspect=fixed;sketch=0;html=1;dashed=0;whitespace=wrap;verticalLabelPosition=bottom;verticalAlign=top;fillColor=#2875E2;strokeColor=#ffffff;points=[[0.005,0.63,0],[0.1,0.2,0],[0.9,0.2,0],[0.5,0,0],[0.995,0.63,0],[0.72,0.99,0],[0.5,1,0],[0.28,0.99,0]];shape=mxgraph.kubernetes.icon2;prIcon=deploy" vertex="1" parent="LA3FCLX1lAekXV_oRuU7-3">
          <mxGeometry x="160" y="20" width="50" height="48" as="geometry" />
        </mxCell>
        <mxCell id="LA3FCLX1lAekXV_oRuU7-8" value="ms marketing catalog" style="text;html=1;align=center;verticalAlign=middle;resizable=0;points=[];autosize=1;strokeColor=none;fillColor=none;" vertex="1" parent="LA3FCLX1lAekXV_oRuU7-3">
          <mxGeometry x="137.5" y="80" width="140" height="30" as="geometry" />
        </mxCell>
        <mxCell id="LA3FCLX1lAekXV_oRuU7-9" value="" style="aspect=fixed;sketch=0;html=1;dashed=0;whitespace=wrap;verticalLabelPosition=bottom;verticalAlign=top;fillColor=#2875E2;strokeColor=#ffffff;points=[[0.005,0.63,0],[0.1,0.2,0],[0.9,0.2,0],[0.5,0,0],[0.995,0.63,0],[0.72,0.99,0],[0.5,1,0],[0.28,0.99,0]];shape=mxgraph.kubernetes.icon2;prIcon=deploy;direction=south;" vertex="1" parent="LA3FCLX1lAekXV_oRuU7-3">
          <mxGeometry x="161" y="179" width="48" height="50" as="geometry" />
        </mxCell>
        <mxCell id="LA3FCLX1lAekXV_oRuU7-10" value="ms consent" style="text;html=1;align=center;verticalAlign=middle;whiteSpace=wrap;rounded=0;" vertex="1" parent="LA3FCLX1lAekXV_oRuU7-3">
          <mxGeometry x="137.5" y="220" width="95" height="30" as="geometry" />
        </mxCell>
        <mxCell id="LA3FCLX1lAekXV_oRuU7-21" value="" style="endArrow=classic;html=1;rounded=0;entryX=0.08;entryY=0.813;entryDx=0;entryDy=0;entryPerimeter=0;" edge="1" parent="LA3FCLX1lAekXV_oRuU7-3" target="LA3FCLX1lAekXV_oRuU7-6">
          <mxGeometry width="50" height="50" relative="1" as="geometry">
            <mxPoint x="90" y="110" as="sourcePoint" />
            <mxPoint x="40" y="80" as="targetPoint" />
          </mxGeometry>
        </mxCell>
        <mxCell id="LA3FCLX1lAekXV_oRuU7-22" value="" style="endArrow=classic;html=1;rounded=0;exitX=0.72;exitY=0.99;exitDx=0;exitDy=0;exitPerimeter=0;" edge="1" parent="LA3FCLX1lAekXV_oRuU7-3" source="LA3FCLX1lAekXV_oRuU7-4" target="LA3FCLX1lAekXV_oRuU7-9">
          <mxGeometry width="50" height="50" relative="1" as="geometry">
            <mxPoint x="-10" y="130" as="sourcePoint" />
            <mxPoint x="40" y="80" as="targetPoint" />
          </mxGeometry>
        </mxCell>
        <mxCell id="LA3FCLX1lAekXV_oRuU7-11" value="" style="sketch=0;outlineConnect=0;fontColor=#232F3E;gradientColor=none;fillColor=#C925D1;strokeColor=none;dashed=0;verticalLabelPosition=bottom;verticalAlign=top;align=center;html=1;fontSize=12;fontStyle=0;aspect=fixed;pointerEvents=1;shape=mxgraph.aws4.rds_instance;" vertex="1" parent="LA3FCLX1lAekXV_oRuU7-1">
          <mxGeometry x="610" y="170" width="50" height="50" as="geometry" />
        </mxCell>
        <mxCell id="LA3FCLX1lAekXV_oRuU7-12" value="" style="sketch=0;outlineConnect=0;fontColor=#232F3E;gradientColor=none;fillColor=#C925D1;strokeColor=none;dashed=0;verticalLabelPosition=bottom;verticalAlign=top;align=center;html=1;fontSize=12;fontStyle=0;aspect=fixed;pointerEvents=1;shape=mxgraph.aws4.rds_instance;" vertex="1" parent="LA3FCLX1lAekXV_oRuU7-1">
          <mxGeometry x="610" y="250" width="50" height="50" as="geometry" />
        </mxCell>
        <mxCell id="LA3FCLX1lAekXV_oRuU7-13" value="" style="sketch=0;outlineConnect=0;fontColor=#232F3E;gradientColor=none;fillColor=#C925D1;strokeColor=none;dashed=0;verticalLabelPosition=bottom;verticalAlign=top;align=center;html=1;fontSize=12;fontStyle=0;aspect=fixed;pointerEvents=1;shape=mxgraph.aws4.rds_instance;" vertex="1" parent="LA3FCLX1lAekXV_oRuU7-1">
          <mxGeometry x="610" y="330" width="50" height="50" as="geometry" />
        </mxCell>
        <mxCell id="LA3FCLX1lAekXV_oRuU7-16" value="" style="endArrow=classic;html=1;rounded=0;" edge="1" parent="LA3FCLX1lAekXV_oRuU7-1" source="LA3FCLX1lAekXV_oRuU7-6" target="LA3FCLX1lAekXV_oRuU7-11">
          <mxGeometry width="50" height="50" relative="1" as="geometry">
            <mxPoint x="210" y="280" as="sourcePoint" />
            <mxPoint x="260" y="230" as="targetPoint" />
          </mxGeometry>
        </mxCell>
        <mxCell id="LA3FCLX1lAekXV_oRuU7-17" value="" style="endArrow=classic;html=1;rounded=0;" edge="1" parent="LA3FCLX1lAekXV_oRuU7-1" source="LA3FCLX1lAekXV_oRuU7-4" target="LA3FCLX1lAekXV_oRuU7-12">
          <mxGeometry width="50" height="50" relative="1" as="geometry">
            <mxPoint x="210" y="280" as="sourcePoint" />
            <mxPoint x="260" y="230" as="targetPoint" />
          </mxGeometry>
        </mxCell>
        <mxCell id="LA3FCLX1lAekXV_oRuU7-20" value="" style="endArrow=classic;html=1;rounded=0;" edge="1" parent="LA3FCLX1lAekXV_oRuU7-1" source="LA3FCLX1lAekXV_oRuU7-9" target="LA3FCLX1lAekXV_oRuU7-13">
          <mxGeometry width="50" height="50" relative="1" as="geometry">
            <mxPoint x="210" y="280" as="sourcePoint" />
            <mxPoint x="260" y="230" as="targetPoint" />
          </mxGeometry>
        </mxCell>
        <mxCell id="LA3FCLX1lAekXV_oRuU7-23" value="" style="sketch=0;outlineConnect=0;fontColor=#232F3E;gradientColor=none;fillColor=#C925D1;strokeColor=none;dashed=0;verticalLabelPosition=bottom;verticalAlign=top;align=center;html=1;fontSize=12;fontStyle=0;aspect=fixed;pointerEvents=1;shape=mxgraph.aws4.cache_node;" vertex="1" parent="LA3FCLX1lAekXV_oRuU7-1">
          <mxGeometry x="380" y="50" width="48" height="48" as="geometry" />
        </mxCell>
        <mxCell id="LA3FCLX1lAekXV_oRuU7-24" value="" style="endArrow=classic;html=1;rounded=0;exitX=0.5;exitY=0;exitDx=0;exitDy=0;exitPerimeter=0;" edge="1" parent="LA3FCLX1lAekXV_oRuU7-1" source="LA3FCLX1lAekXV_oRuU7-4" target="LA3FCLX1lAekXV_oRuU7-23">
          <mxGeometry width="50" height="50" relative="1" as="geometry">
            <mxPoint x="210" y="280" as="sourcePoint" />
            <mxPoint x="260" y="230" as="targetPoint" />
          </mxGeometry>
        </mxCell>
        <mxCell id="LA3FCLX1lAekXV_oRuU7-25" value="VPC" style="sketch=0;outlineConnect=0;gradientColor=none;html=1;whiteSpace=wrap;fontSize=12;fontStyle=0;shape=mxgraph.aws4.group;grIcon=mxgraph.aws4.group_vpc;strokeColor=#879196;fillColor=none;verticalAlign=top;align=left;spacingLeft=30;fontColor=#879196;dashed=0;" vertex="1" parent="1">
          <mxGeometry x="230" y="110" width="660" height="410" as="geometry" />
        </mxCell>
        <mxCell id="LA3FCLX1lAekXV_oRuU7-26" value="" style="sketch=0;outlineConnect=0;fontColor=#232F3E;gradientColor=none;fillColor=#8C4FFF;strokeColor=none;dashed=0;verticalLabelPosition=bottom;verticalAlign=top;align=center;html=1;fontSize=12;fontStyle=0;aspect=fixed;pointerEvents=1;shape=mxgraph.aws4.network_load_balancer;" vertex="1" parent="1">
          <mxGeometry x="280" y="320" width="48" height="48" as="geometry" />
        </mxCell>
      </root>
    </mxGraphModel>
  </diagram>
</mxfile>
